HIERARCHY
ROOT pelvis
{
  OFFSET 0 100 0
  CHANNELS 6 Xposition Yposition Zposition Zrotation Xrotation Yrotation
  JOINT pelvis_right_femur
  {
    OFFSET -10.78128 -3.44521 -0.5502486
    CHANNELS 3 Zrotation Xrotation Yrotation
    JOINT right_femur_tibia
    {
      OFFSET -0.8047443 -44.0398 -0.1307829
      CHANNELS 3 Zrotation Xrotation Yrotation
      JOINT right_tibia_foot
      {
        OFFSET 3.006224 -47.83518 -5
        CHANNELS 3 Zrotation Xrotation Yrotation
        End Site
        {
          OFFSET 0 -5 15
        }
      }
    }
  }
  JOINT pelvis_left_femur
  {
    OFFSET 10.78128 -3.44521 -0.5502486
    CHANNELS 3 Zrotation Xrotation Yrotation
    JOINT left_femur_tibia
    {
      OFFSET 0.8047443 -44.0398 -0.1307829
      CHANNELS 3 Zrotation Xrotation Yrotation
      JOINT left_tibia_foot
      {
        OFFSET -4.370144 -48.10324 -4.275266
        CHANNELS 3 Zrotation Xrotation Yrotation
        End Site
        {
          OFFSET 0 -5 15
        }
      }
    }
  }
  JOINT pelvis_spine1
  {
    OFFSET 0 6.468898 -3.129235
    CHANNELS 3 Zrotation Xrotation Yrotation
    JOINT spine1
    {
      OFFSET 0 23.15396 4.99043
      CHANNELS 3 Zrotation Xrotation Yrotation
      JOINT spine2
      {
        OFFSET 0 20.79997 -5.064912
        CHANNELS 3 Zrotation Xrotation Yrotation
        JOINT neck
        {
          OFFSET 0 14.38658 9.616178
          CHANNELS 3 Zrotation Xrotation Yrotation
          End Site
          {
            OFFSET 0 20 0
          }
        }
      }
      JOINT right_manubrium
      {
        OFFSET -5.722621 16.35077 3.967754
        CHANNELS 3 Zrotation Xrotation Yrotation
        JOINT right_clavicle
        {
          OFFSET -13.16364 1.694482 -4.693211
          CHANNELS 3 Zrotation Xrotation Yrotation
          JOINT right_humerus
          {
            OFFSET -28.5034 -0.3100689 -2.792744
            CHANNELS 3 Zrotation Xrotation Yrotation
            JOINT right_radius
            {
              OFFSET -25.15693 0.02248979 -1.271978
              CHANNELS 3 Zrotation Xrotation Yrotation
              End Site
              {
                OFFSET -15 0 0
              }
            }
          }
        }
      }
      JOINT left_manubrium
      {
        OFFSET 5.722621 16.35077 3.967754
        CHANNELS 3 Zrotation Xrotation Yrotation
        JOINT left_clavicle
        {
          OFFSET 13.16364 1.694482 -4.693211
          CHANNELS 3 Zrotation Xrotation Yrotation
          JOINT left_humerus
          {
            OFFSET 29.39168 -1.063119 -2.237045
            CHANNELS 3 Zrotation Xrotation Yrotation
            JOINT left_radius
            {
              OFFSET 24.59957 -0.9528479 0.9047498
              CHANNELS 3 Zrotation Xrotation Yrotation
              End Site
              {
                OFFSET 15 -0 -0
              }
            }
          }
        }
      }
    }
  }
}
MOTION
Frames: 21
Frame Time: 0.0416666666667
0 103.5113 0 0.7073299 -0.9885245 0.02336033 3.699385 -17.52897 8.219115 -0 35.75729 -0 -6.29797 -14.9945 -2.488049 -7.06183 9.327398 -21.97682 -0 6.442909 -0 11.28539 -15.05263 27.0013 -3.266429 -3.279994 4.778471 2.280559 9.738661 -7.082264 1.609551 22.46476 6.537065 2.593613 -25.02215 9.878448 4.834631 -20.28547 11.39572 86.69104 33.93258 -18.3071 -0 0 15.16289 -7.583698 7.717989 4.87648 5.902465 -19.72976 -1.687933 -92.47293 24.05374 20.60987 0 0 -16.21273 12.75695 16.11824 -0.08361778
0.3225405 103.9987 2.126719 0.6295052 -1.150271 0.06271022 3.530842 -18.35553 7.352716 -0 34.93774 -0 -6.537131 -13.3967 -2.211259 -6.966491 9.622644 -21.31619 -0 5.961795 -0 10.97247 -15.68206 26.40855 -3.237854 -3.059161 4.571878 2.288801 9.859686 -7.107116 1.542974 22.50773 6.645613 2.685936 -25.02888 9.796672 4.563503 -20.21287 11.46567 87.01045 33.15878 -18.44579 -0 0 14.59195 -8.518139 7.726245 5.340443 5.995918 -20.11719 -2.000992 -92.08934 23.66376 20.07762 0 0 -16.57772 12.8719 16.16856 -0.3159582
0.6549006 103.9482 5.6869 -0.3095218 -0.5787902 0.2180546 3.46976 -27.00724 1.818714 -0 22.51418 -0 -7.824007 -3.328005 -0.7287755 -6.063042 12.62609 -16.52268 -0 7.127804 -0 5.672748 -21.21228 20.31923 -2.824379 -1.269469 3.12439 2.938586 9.88858 -7.598168 1.199176 22.04636 7.432039 3.541457 -25.34479 9.199607 3.342339 -18.62563 11.75305 88.53482 29.25223 -20.35156 -0 0 10.61436 -13.41925 8.194114 7.684501 6.870486 -22.46748 -3.492533 -90.04025 22.87129 16.55858 0 0 -20.54215 10.5926 15.99855 1.447559
0.9142013 103.8001 9.774987 -0.57074 -0.1349661 0.4408631 3.770614 -29.1333 0.6995088 -0 18.12135 -0 -8.070117 -1.399977 -0.5196574 -5.76668 13.58729 -15.09849 -0 9.433135 -0 3.722227 -21.97596 18.19433 -2.521221 -0.9630751 2.824918 3.112529 9.737759 -7.769624 1.132955 21.80362 7.537034 3.649826 -25.38797 9.033156 3.021469 -17.98283 11.72341 89.06978 28.58164 -21.19901 -0 0 9.375378 -14.05101 8.451154 7.879256 7.089006 -23.03059 -3.652788 -89.24459 22.66534 15.3283 0 0 -22.25432 10.09768 15.56147 1.794355
1.060851 103.6219 14.55018 -0.7995457 -0.1759032 0.7009303 4.130887 -29.73455 -0.5867221 -0 13.76055 -0 -8.573221 0.2449398 -0.3946555 -5.356451 14.37592 -13.25106 -0 13.58792 -0 1.343748 -21.66108 15.75652 -1.935337 -0.813136 2.516057 3.087812 9.618138 -7.81955 1.081196 21.80265 7.461804 3.553141 -25.08624 8.758186 2.266563 -17.31074 11.60699 90.09375 27.21564 -22.10264 -0 0 7.708136 -14.81427 8.635895 7.963417 7.173551 -23.6335 -3.944588 -88.21864 22.24704 13.80321 0 0 -24.08668 9.883413 15.16346 1.79498
1.111919 103.5349 19.81204 -0.941856 -0.4224574 0.9620583 4.56597 -29.02236 -1.186556 -0 11.31704 -0 -9.013312 0.6526514 -0.489689 -5.024644 14.6728 -12.06154 -0 17.66966 -0 -0.3313961 -20.6388 14.23049 -1.397126 -0.8426034 2.357235 2.978958 9.504965 -7.784144 1.07849 21.92367 7.281756 3.36011 -24.7236 8.545925 1.63814 -16.87195 11.46311 90.91695 26.21122 -22.66019 -0 0 6.583207 -15.07975 8.729397 7.824519 7.09541 -23.8818 -4.114165 -87.61393 22.07972 12.91144 0 0 -25.08872 9.710465 14.94315 1.856031
1.060712 103.5998 25.49208 -1.012105 -1.116409 1.173629 4.970173 -26.9874 -1.725895 -0 9.735731 -0 -9.640102 0.4726324 -0.7036754 -4.691082 14.53108 -11.00169 -0 22.45762 -0 -1.809753 -19.00942 13.12162 -0.8103111 -0.9390879 2.252352 2.750566 9.411999 -7.616795 1.130592 22.30278 6.959443 3.05629 -24.1407 8.305482 0.8198623 -16.52805 11.27799 91.84815 24.87174 -22.97586 -0 0 5.505335 -15.3552 8.67166 7.60722 6.885697 -23.97172 -4.361045 -87.21469 22.03813 12.23021 0 0 -25.48082 9.551415 15.01099 1.921219
0.9170756 103.8842 31.45151 -1.01978 -2.012019 1.303902 5.319148 -24.28595 -2.080372 -0 8.982847 -0 -10.3258 -0.2177132 -1.02083 -4.401578 13.94822 -10.25463 -0 27.28688 -0 -2.944056 -17.19757 12.50983 -0.3050723 -1.027001 2.223155 2.49384 9.321038 -7.37307 1.2338 22.81241 6.567851 2.730862 -23.50009 8.08351 0.03728875 -16.2818 11.09185 92.64833 23.59469 -23.0291 -0 0 4.692942 -15.52445 8.527449 7.344543 6.596718 -23.8669 -4.600556 -87.10942 22.21638 11.8987 0 0 -25.21573 9.286282 15.29508 2.144978
0.6837074 104.4048 37.54943 -0.9538726 -3.13613 1.318727 5.565588 -20.98725 -2.372338 -0 8.749047 -0 -11.09443 -1.266601 -1.411674 -4.14853 12.81265 -9.72135 -0 32.17638 -0 -3.805099 -15.32461 12.31897 0.09335951 -1.048815 2.269578 2.212194 9.241131 -7.036538 1.397168 23.4682 6.102396 2.396878 -22.77999 7.865452 -0.7417214 -16.11389 10.91472 93.32168 22.30063 -22.80054 -0 0 4.106172 -15.69233 8.299682 7.080428 6.256748 -23.60451 -4.857484 -87.27453 22.58457 11.85283 0 0 -24.31213 8.915393 15.80603 2.506572
0.3675403 105.1533 43.63844 -0.8306459 -4.323572 1.206037 5.70925 -17.46593 -2.559909 -0 8.809381 -0 -11.84203 -2.543104 -1.835953 -3.926027 11.07211 -9.384584 -0 36.70998 -0 -4.386433 -13.60627 12.48148 0.3332024 -0.9622046 2.402549 1.946406 9.18035 -6.640979 1.603021 24.16504 5.612212 2.097746 -22.06301 7.663346 -1.407157 -16.03385 10.77358 93.74681 21.20269 -22.2925 -0 0 3.849847 -15.8396 8.065809 6.864339 5.913244 -23.2107 -5.079995 -87.68627 23.09245 12.11275 0 0 -22.89758 8.43577 16.41457 3.01019
-0.02272781 106.0739 49.58828 -0.6645886 -5.483743 0.9683151 5.762524 -13.85591 -2.635332 -0 8.930677 -0 -12.48321 -3.973276 -2.255597 -3.698405 8.633895 -9.161645 -0 40.55222 -0 -4.715426 -12.13047 12.93132 0.4044188 -0.7494707 2.629909 1.704977 9.153478 -6.199842 1.831437 24.83081 5.125015 1.845634 -21.37402 7.474701 -1.921875 -16.06959 10.68141 93.85585 20.39313 -21.48264 -0 0 3.998013 -15.99164 7.889136 6.746661 5.601269 -22.71916 -5.23789 -88.29804 23.65509 12.67299 0 0 -21.1148 7.877284 17.00276 3.616082
-0.4720354 107.083 55.3111 -0.4875555 -6.482684 0.6257309 5.767029 -10.29471 -2.555367 -0 8.938264 -0 -12.90098 -5.528968 -2.632943 -3.41232 5.505207 -8.968037 -0 43.26935 -0 -4.831063 -10.92973 13.58747 0.3284409 -0.4306808 2.95008 1.495112 9.166512 -5.745431 2.045318 25.36382 4.682203 1.64497 -20.75195 7.300559 -2.2393 -16.25884 10.64275 93.582 19.99587 -20.37081 -0 0 4.631798 -16.14586 7.844619 6.774341 5.348248 -22.16307 -5.286554 -89.03614 24.17323 13.52667 0 0 -19.17906 7.273141 17.40797 4.286188
-0.958352 108.0811 60.77704 -0.3331168 -7.227273 0.2073832 5.768644 -6.800646 -2.292996 -0 8.740571 -0 -13.0045 -7.240255 -2.94473 -3.007842 1.781031 -8.719327 -0 44.5106 -0 -4.795998 -9.955078 14.38035 0.1586659 -0.05633215 3.349326 1.311145 9.210896 -5.307197 2.208585 25.69065 4.313364 1.483172 -20.21024 7.139476 -2.354467 -16.63469 10.64617 92.90483 20.05331 -18.96346 -0 0 5.790222 -16.30923 7.976428 6.979832 5.162711 -21.56394 -5.196932 -89.82263 24.56978 14.6482 0 0 -17.28668 6.642288 17.5026 4.997627
-1.453676 108.9778 66.01778 -0.233293 -7.662197 -0.2573199 5.798202 -3.368753 -1.847508 -0 8.357419 -0 -12.75 -9.131888 -3.177285 -2.449721 -2.299027 -8.364228 -0 44.09231 -0 -4.687863 -9.127413 15.24444 -0.03729805 0.304196 3.797633 1.145972 9.259618 -4.91447 2.295365 25.77522 4.038393 1.343911 -19.75454 6.993358 -2.292584 -17.201 10.66754 91.85993 20.52828 -17.30178 -0 0 7.43678 -16.49242 8.281413 7.372442 5.036639 -20.93168 -4.96005 -90.58903 24.8102 15.98355 0 0 -15.58619 5.982403 17.22143 5.751874
-1.927994 109.7083 71.112 -0.2069662 -7.799709 -0.746064 5.851248 0.00119059 -1.265039 -0 7.911687 -0 -12.16469 -11.1593 -3.322143 -1.753516 -6.398376 -7.901633 -0 42.08735 -0 -4.581516 -8.385112 16.12782 -0.2022288 0.5904834 4.253051 0.9927795 9.275781 -4.582735 2.304549 25.63972 3.859578 1.214543 -19.37972 6.869282 -2.114948 -17.92015 10.67508 90.54781 21.28229 -15.45874 -0 0 9.444182 -16.72068 8.696702 7.936204 4.952771 -20.2668 -4.596643 -91.29703 24.9075 17.44904 0 0 -14.12475 5.280955 16.59484 6.560797
-2.354657 110.2417 76.16101 -0.2552118 -7.717086 -1.245954 5.888952 3.246789 -0.6357105 -0 7.600852 -0 -11.3444 -13.15597 -3.373882 -0.9982486 -10.14044 -7.386811 -0 38.82917 -0 -4.530076 -7.723058 16.98831 -0.3068727 0.7725976 4.666852 0.8472234 9.227027 -4.308999 2.261855 25.35915 3.764335 1.09205 -19.07653 6.78109 -1.90762 -18.71237 10.6371 89.12857 22.10149 -13.54312 -0 0 11.60197 -17.0265 9.112839 8.63098 4.895611 -19.57182 -4.155132 -91.93682 24.90338 18.93036 0 0 -12.85324 4.542038 15.74089 7.416858
-2.715453 110.58 81.26278 -0.3622579 -7.535597 -1.750786 5.859114 6.230889 -0.06743196 -0 7.647028 -0 -10.42804 -14.8526 -3.33989 -0.3076402 -13.19392 -6.913737 -0 34.82624 -0 -4.553243 -7.192725 17.79019 -0.353638 0.8596045 4.991756 0.706455 9.100175 -4.074688 2.209659 25.03671 3.731151 0.9815555 -18.83328 6.745625 -1.760471 -19.4746 10.53113 87.79536 22.7547 -11.68814 -0 0 13.6609 -17.43484 9.410431 9.3985 4.85797 -18.86113 -3.701222 -92.51031 24.84273 20.29383 0 0 -11.67012 3.801742 14.82512 8.276178
-3.003804 110.7517 86.49233 -0.5030141 -7.380454 -2.25536 5.723586 8.756915 0.352158 -0 8.240434 -0 -9.559443 -15.95705 -3.250494 0.1926703 -15.33027 -6.579311 -0 30.63492 -0 -4.638135 -6.870078 18.49748 -0.3662491 0.8896029 5.189843 0.5694586 8.908456 -3.859299 2.188506 24.7675 3.738194 0.8917513 -18.63865 6.775157 -1.737637 -20.1072 10.3532 86.73128 23.06792 -10.03473 -0 0 15.39035 -17.94642 9.505053 10.1702 4.839891 -18.16699 -3.302815 -93.00796 24.75576 21.40525 0 0 -10.49206 3.122052 14.00427 9.066294
-3.22495 110.805 91.89152 -0.6526182 -7.341542 -2.749743 5.474984 10.61764 0.5852736 -0 9.488954 -0 -8.849126 -16.25839 -3.155469 0.4238341 -16.45257 -6.442945 -0 26.73649 -0 -4.750138 -6.81171 19.07256 -0.3734987 0.9095584 5.240232 0.4381106 8.688746 -3.654882 2.220766 24.60775 3.769551 0.8302199 -18.48388 6.869892 -1.854115 -20.54021 10.12308 86.05994 22.97868 -8.703664 -0 0 16.63231 -18.53275 9.378826 10.87946 4.842445 -17.53651 -3.015085 -93.39855 24.65315 22.15803 0 0 -9.306328 2.568331 13.37913 9.712756
-3.39304 110.7997 97.4676 -0.7932804 -7.452502 -3.21642 5.13625 11.65459 0.6492442 -0 11.38967 -0 -8.350379 -15.69786 -3.105331 0.3805354 -16.5928 -6.504421 -0 23.4591 -0 -4.848244 -7.025415 19.4816 -0.3956991 0.9559998 5.143428 0.3175673 8.490254 -3.471972 2.304261 24.56392 3.817372 0.8007889 -18.3643 7.015525 -2.072894 -20.74855 9.880528 85.81451 22.54195 -7.769739 -0 0 17.32895 -19.14558 9.082114 11.47515 4.862122 -17.02144 -2.870634 -93.63814 24.53041 22.4982 0 0 -8.179072 2.187358 12.97686 10.16458
-3.526198 110.7968 103.1987 -0.9160264 -7.694562 -3.631967 4.748609 11.80554 0.5980436 -0 13.83031 -0 -8.058139 -14.37785 -3.131188 0.1223803 -15.88657 -6.711923 -0 20.9531 -0 -4.898629 -7.46774 19.70424 -0.4389797 1.044742 4.920135 0.214895 8.359343 -3.333901 2.417153 24.60382 3.880323 0.8029075 -18.2789 7.187299 -2.324911 -20.75183 9.672109 85.94184 21.88959 -7.251132 -0 0 17.51707 -19.73433 8.706714 11.93126 4.889731 -16.66482 -2.876776 -93.69062 24.37577 22.43504 0 0 -7.221473 1.99615 12.76508 10.40595
